<svg width="20" height="20" viewBox="0 0 20 20" fill="none" xmlns="http://www.w3.org/2000/svg">
<path d="M12.6081 12.6072L12.6148 12.6099L12.6104 12.6143L12.6081 12.6072ZM10.9115 18.333L11.173 18.2964C12.191 18.1542 13.1739 17.8247 14.0721 17.3247L14.2359 17.2334L12.6104 12.6143C12.071 13.1527 11.6429 13.792 11.3514 14.4962C11.0599 15.2004 10.9104 15.9552 10.9115 16.7173L10.9115 18.333ZM12.6148 12.6099L17.234 14.2353L17.3253 14.0715C17.8253 13.1734 18.1548 12.1905 18.297 11.1725L18.3337 10.911L16.7182 10.9113C15.9561 10.9103 15.2013 11.0598 14.4971 11.3513C13.7929 11.6428 13.1532 12.0705 12.6148 12.6099ZM1.66699 10.9113L1.70393 11.1725C1.84583 12.1907 2.17519 13.1737 2.67531 14.0718L2.76664 14.2357L7.38181 12.6056C6.84352 12.0675 6.20438 11.6409 5.501 11.3502C4.79763 11.0595 4.04381 10.9103 3.28272 10.9113H1.66699ZM5.76477 17.2338L5.92857 17.325C6.82677 17.8252 7.80979 18.1545 8.82795 18.2964L9.0892 18.3334L9.0892 16.7177C9.09022 15.9567 8.94109 15.2029 8.65043 14.4997C8.35973 13.7963 7.93318 13.1572 7.39524 12.619L5.76477 17.2338ZM7.38181 12.6056L7.39524 12.619L7.40264 12.5988L7.38181 12.6056ZM16.7179 9.08907H18.3337L18.297 8.82751C18.1548 7.80954 17.8253 6.82662 17.3253 5.92851L17.234 5.76472L12.6125 7.38844C13.1511 7.92842 13.791 8.35663 14.4956 8.64841C15.2003 8.94019 15.9553 9.09015 16.7179 9.08907ZM14.0721 2.67531C13.1739 2.1753 12.191 1.84584 11.173 1.70362L10.9115 1.667L10.9117 3.28241C10.9108 4.04506 11.0605 4.80046 11.3523 5.50511C11.6442 6.20982 12.0724 6.84981 12.6125 7.38844L14.2359 2.76666L14.0721 2.67531ZM7.39053 7.38576L7.38617 7.39012L7.3929 7.39214L7.39053 7.38576ZM9.0892 1.66669L8.82795 1.70365C7.80979 1.84552 6.82677 2.17484 5.92857 2.67501L5.76477 2.76629L7.39053 7.38576C7.92984 6.84716 8.35746 6.20744 8.6489 5.50322C8.94035 4.799 9.08987 4.04416 9.08887 3.28205L9.0892 1.66669ZM7.38617 7.39012L2.76664 5.76435L2.67531 5.92821C2.17519 6.82634 1.84583 7.80938 1.70393 8.82753L1.66699 9.08876H3.28272C4.04484 9.08964 4.79964 8.94005 5.50381 8.64856C6.20798 8.35706 6.84767 7.92941 7.38617 7.39012ZM7.3929 7.39214L7.39524 7.39986C7.8438 9.10629 7.84588 10.8994 7.40126 12.6069L7.409 12.6045C9.11546 12.1558 10.9087 12.1537 12.6161 12.5985L12.6141 12.5911C12.1652 10.8847 12.1631 9.09147 12.6081 7.38407L12.6004 7.38575C10.8941 7.83471 9.10026 7.83692 7.3929 7.39214Z" fill="#073040"/>
</svg>
