<svg width="94" height="20" viewBox="0 0 94 20" fill="none" xmlns="http://www.w3.org/2000/svg">
<path d="M12.6081 12.6072L12.6148 12.6099L12.6104 12.6143L12.6081 12.6072ZM10.9115 18.333L11.173 18.2964C12.191 18.1542 13.1739 17.8247 14.0721 17.3247L14.2359 17.2334L12.6104 12.6143C12.071 13.1527 11.6429 13.792 11.3514 14.4962C11.0599 15.2004 10.9104 15.9552 10.9115 16.7173L10.9115 18.333ZM12.6148 12.6099L17.234 14.2353L17.3253 14.0715C17.8253 13.1734 18.1548 12.1905 18.297 11.1725L18.3337 10.911L16.7182 10.9113C15.9561 10.9103 15.2013 11.0598 14.4971 11.3513C13.7929 11.6428 13.1532 12.0705 12.6148 12.6099ZM1.66699 10.9113L1.70393 11.1725C1.84583 12.1907 2.17519 13.1737 2.67531 14.0718L2.76664 14.2357L7.38181 12.6056C6.84352 12.0675 6.20438 11.6409 5.501 11.3502C4.79763 11.0595 4.04381 10.9103 3.28272 10.9113H1.66699ZM5.76477 17.2338L5.92857 17.325C6.82677 17.8252 7.80979 18.1545 8.82795 18.2964L9.0892 18.3334L9.0892 16.7177C9.09022 15.9567 8.94109 15.2029 8.65043 14.4997C8.35973 13.7963 7.93318 13.1572 7.39524 12.619L5.76477 17.2338ZM7.38181 12.6056L7.39524 12.619L7.40264 12.5988L7.38181 12.6056ZM16.7179 9.08907H18.3337L18.297 8.82751C18.1548 7.80954 17.8253 6.82662 17.3253 5.92851L17.234 5.76472L12.6125 7.38844C13.1511 7.92842 13.791 8.35663 14.4956 8.64841C15.2003 8.94019 15.9553 9.09015 16.7179 9.08907ZM14.0721 2.67531C13.1739 2.1753 12.191 1.84584 11.173 1.70362L10.9115 1.667L10.9117 3.28241C10.9108 4.04506 11.0605 4.80046 11.3523 5.50511C11.6442 6.20982 12.0724 6.84981 12.6125 7.38844L14.2359 2.76666L14.0721 2.67531ZM7.39053 7.38576L7.38617 7.39012L7.3929 7.39214L7.39053 7.38576ZM9.0892 1.66669L8.82795 1.70365C7.80979 1.84552 6.82677 2.17484 5.92857 2.67501L5.76477 2.76629L7.39053 7.38576C7.92984 6.84716 8.35746 6.20744 8.6489 5.50322C8.94035 4.799 9.08987 4.04416 9.08887 3.28205L9.0892 1.66669ZM7.38617 7.39012L2.76664 5.76435L2.67531 5.92821C2.17519 6.82634 1.84583 7.80938 1.70393 8.82753L1.66699 9.08876H3.28272C4.04484 9.08964 4.79964 8.94005 5.50381 8.64856C6.20798 8.35706 6.84767 7.92941 7.38617 7.39012ZM7.3929 7.39214L7.39524 7.39986C7.8438 9.10629 7.84588 10.8994 7.40126 12.6069L7.409 12.6045C9.11546 12.1558 10.9087 12.1537 12.6161 12.5985L12.6141 12.5911C12.1652 10.8847 12.1631 9.09147 12.6081 7.38407L12.6004 7.38575C10.8941 7.83471 9.10026 7.83692 7.3929 7.39214Z" fill="#073040"/>
<path d="M31.2718 15.612C30.2371 15.612 29.2824 15.372 28.4078 14.892C27.5438 14.4013 26.8558 13.724 26.3438 12.86C25.8424 11.9853 25.5918 11.004 25.5918 9.916C25.5918 8.828 25.8424 7.852 26.3438 6.988C26.8558 6.124 27.5438 5.452 28.4078 4.972C29.2824 4.48133 30.2371 4.236 31.2718 4.236C32.3171 4.236 33.2718 4.48133 34.1358 4.972C35.0104 5.452 35.6984 6.124 36.1998 6.988C36.7011 7.852 36.9518 8.828 36.9518 9.916C36.9518 11.004 36.7011 11.9853 36.1998 12.86C35.6984 13.724 35.0104 14.4013 34.1358 14.892C33.2718 15.372 32.3171 15.612 31.2718 15.612ZM31.2718 14.028C32.0078 14.028 32.6638 13.8627 33.2398 13.532C33.8158 13.1907 34.2638 12.7107 34.5838 12.092C34.9144 11.4627 35.0798 10.7373 35.0798 9.916C35.0798 9.09467 34.9144 8.37467 34.5838 7.756C34.2638 7.13733 33.8158 6.66267 33.2398 6.332C32.6638 6.00133 32.0078 5.836 31.2718 5.836C30.5358 5.836 29.8798 6.00133 29.3038 6.332C28.7278 6.66267 28.2744 7.13733 27.9438 7.756C27.6238 8.37467 27.4638 9.09467 27.4638 9.916C27.4638 10.7373 27.6238 11.4627 27.9438 12.092C28.2744 12.7107 28.7278 13.1907 29.3038 13.532C29.8798 13.8627 30.5358 14.028 31.2718 14.028ZM40.4206 7.996C40.73 7.56933 41.1513 7.22267 41.6846 6.956C42.2286 6.67867 42.8313 6.54 43.4926 6.54C44.2713 6.54 44.9753 6.72667 45.6046 7.1C46.234 7.47333 46.73 8.00667 47.0926 8.7C47.4553 9.38267 47.6366 10.1667 47.6366 11.052C47.6366 11.9373 47.4553 12.732 47.0926 13.436C46.73 14.1293 46.2286 14.6733 45.5886 15.068C44.9593 15.452 44.2606 15.644 43.4926 15.644C42.81 15.644 42.202 15.5107 41.6686 15.244C41.146 14.9773 40.73 14.636 40.4206 14.22V15.5H38.5966V3.66H40.4206V7.996ZM45.7806 11.052C45.7806 10.444 45.6526 9.92133 45.3966 9.484C45.1513 9.036 44.8206 8.7 44.4046 8.476C43.9993 8.24133 43.562 8.124 43.0926 8.124C42.634 8.124 42.1966 8.24133 41.7806 8.476C41.3753 8.71067 41.0446 9.052 40.7886 9.5C40.5433 9.948 40.4206 10.476 40.4206 11.084C40.4206 11.692 40.5433 12.2253 40.7886 12.684C41.0446 13.132 41.3753 13.4733 41.7806 13.708C42.1966 13.9427 42.634 14.06 43.0926 14.06C43.562 14.06 43.9993 13.9427 44.4046 13.708C44.8206 13.4627 45.1513 13.1107 45.3966 12.652C45.6526 12.1933 45.7806 11.66 45.7806 11.052ZM57.3704 10.876C57.3704 11.2067 57.349 11.5053 57.3064 11.772H50.5704C50.6237 12.476 50.885 13.0413 51.3544 13.468C51.8237 13.8947 52.3997 14.108 53.0824 14.108C54.0637 14.108 54.757 13.6973 55.1624 12.876H57.1304C56.8637 13.6867 56.3784 14.3533 55.6744 14.876C54.981 15.388 54.117 15.644 53.0824 15.644C52.2397 15.644 51.4824 15.4573 50.8104 15.084C50.149 14.7 49.6264 14.1667 49.2424 13.484C48.869 12.7907 48.6824 11.9907 48.6824 11.084C48.6824 10.1773 48.8637 9.38267 49.2264 8.7C49.5997 8.00667 50.117 7.47333 50.7784 7.1C51.4504 6.72667 52.2184 6.54 53.0824 6.54C53.9144 6.54 54.6557 6.72133 55.3064 7.084C55.957 7.44667 56.4637 7.95867 56.8264 8.62C57.189 9.27067 57.3704 10.0227 57.3704 10.876ZM55.4664 10.3C55.4557 9.628 55.2157 9.08933 54.7464 8.684C54.277 8.27867 53.6957 8.076 53.0024 8.076C52.373 8.076 51.8344 8.27867 51.3864 8.684C50.9384 9.07867 50.6717 9.61733 50.5864 10.3H55.4664ZM60.8394 7.964C61.106 7.516 61.458 7.16933 61.8954 6.924C62.3434 6.668 62.8714 6.54 63.4794 6.54V8.428H63.0154C62.3007 8.428 61.7567 8.60933 61.3834 8.972C61.0207 9.33467 60.8394 9.964 60.8394 10.86V15.5H59.0154V6.684H60.8394V7.964ZM72.942 6.684L67.534 19.644H65.646L67.438 15.356L63.966 6.684H65.998L68.478 13.404L71.054 6.684H72.942ZM77.9925 15.644C77.1605 15.644 76.4085 15.4573 75.7365 15.084C75.0645 14.7 74.5365 14.1667 74.1525 13.484C73.7685 12.7907 73.5765 11.9907 73.5765 11.084C73.5765 10.188 73.7738 9.39333 74.1685 8.7C74.5632 8.00667 75.1018 7.47333 75.7845 7.1C76.4672 6.72667 77.2298 6.54 78.0725 6.54C78.9152 6.54 79.6778 6.72667 80.3605 7.1C81.0432 7.47333 81.5818 8.00667 81.9765 8.7C82.3712 9.39333 82.5685 10.188 82.5685 11.084C82.5685 11.98 82.3658 12.7747 81.9605 13.468C81.5552 14.1613 81.0005 14.7 80.2965 15.084C79.6032 15.4573 78.8352 15.644 77.9925 15.644ZM77.9925 14.06C78.4618 14.06 78.8992 13.948 79.3045 13.724C79.7205 13.5 80.0565 13.164 80.3125 12.716C80.5685 12.268 80.6965 11.724 80.6965 11.084C80.6965 10.444 80.5738 9.90533 80.3285 9.468C80.0832 9.02 79.7578 8.684 79.3525 8.46C78.9472 8.236 78.5098 8.124 78.0405 8.124C77.5712 8.124 77.1338 8.236 76.7285 8.46C76.3338 8.684 76.0192 9.02 75.7845 9.468C75.5498 9.90533 75.4325 10.444 75.4325 11.084C75.4325 12.0333 75.6725 12.7693 76.1525 13.292C76.6432 13.804 77.2565 14.06 77.9925 14.06ZM88.6696 6.54C89.363 6.54 89.9816 6.684 90.5256 6.972C91.0803 7.26 91.5123 7.68667 91.8216 8.252C92.131 8.81733 92.2856 9.5 92.2856 10.3V15.5H90.4776V10.572C90.4776 9.78267 90.2803 9.18 89.8856 8.764C89.491 8.33733 88.9523 8.124 88.2696 8.124C87.587 8.124 87.043 8.33733 86.6376 8.764C86.243 9.18 86.0456 9.78267 86.0456 10.572V15.5H84.2216V6.684H86.0456V7.692C86.3443 7.32933 86.723 7.04667 87.1816 6.844C87.651 6.64133 88.147 6.54 88.6696 6.54Z" fill="#073040"/>
</svg>
